<?xml version="1.0" standalone="no"?>
<!DOCTYPE svg PUBLIC "-//W3C//DTD SVG 20010904//EN"
 "http://www.w3.org/TR/2001/REC-SVG-20010904/DTD/svg10.dtd">
<svg version="1.0" xmlns="http://www.w3.org/2000/svg"
 width="960.000000pt" height="554.000000pt" viewBox="0 0 960.000000 554.000000"
 preserveAspectRatio="xMidYMid meet">

<g transform="translate(0.000000,554.000000) scale(0.100000,-0.100000)"
fill="#222">
<path d="M0 2770 l0 -2770 4800 0 4800 0 0 2770 0 2770 -4800 0 -4800 0 0
-2770z m6259 1745 c22 -21 26 -34 26 -83 -1 -113 -92 -278 -470 -847 -242
-364 -298 -452 -433 -671 -73 -120 -83 -143 -111 -250 -75 -298 -107 -515 -99
-681 6 -105 20 -146 56 -163 111 -50 261 118 504 566 66 121 82 161 98 239 30
146 116 430 198 650 185 499 433 965 606 1140 123 123 213 159 296 117 102
-51 79 -154 -107 -472 -37 -64 -218 -342 -375 -575 -156 -234 -399 -618 -435
-690 -17 -34 -66 -220 -102 -390 -37 -176 -53 -447 -30 -516 29 -85 93 -103
168 -49 57 42 90 79 165 185 55 78 236 379 236 392 0 16 131 261 175 328 66
101 112 148 178 182 92 46 166 31 210 -45 24 -41 50 -168 44 -219 -2 -24 -2
-43 2 -43 3 0 39 65 79 144 40 80 79 150 87 156 22 19 68 8 83 -20 13 -23 9
-37 -68 -200 -240 -511 -330 -799 -274 -878 32 -46 89 -24 180 70 116 120 248
313 403 591 18 31 37 57 42 57 28 0 -7 -70 -154 -305 -211 -336 -357 -487
-455 -471 -41 6 -79 38 -98 81 -18 45 -27 143 -16 198 5 26 6 47 2 47 -4 0
-37 -42 -73 -92 -83 -116 -89 -124 -159 -180 -73 -60 -158 -93 -202 -78 -38
12 -66 43 -83 90 -18 52 -16 193 6 283 20 85 13 99 -20 36 -30 -59 -153 -224
-218 -293 -31 -32 -73 -67 -93 -77 -49 -25 -114 -24 -156 1 -43 27 -88 100
-104 169 -14 63 -13 267 1 351 5 30 6 58 3 62 -4 4 -43 -56 -86 -132 -43 -77
-97 -163 -118 -192 -22 -29 -49 -66 -61 -83 -44 -60 -143 -157 -179 -176 -21
-10 -57 -19 -80 -19 -88 0 -145 65 -180 203 -22 88 -21 203 3 358 6 39 9 72 7
74 -2 3 -41 -48 -85 -113 -234 -335 -492 -532 -697 -532 -65 0 -107 25 -146
86 -42 67 -54 132 -48 276 7 152 37 266 113 423 131 268 307 435 460 435 114
0 175 -63 175 -181 0 -140 -81 -291 -205 -387 -54 -41 -173 -93 -262 -113
-136 -31 -136 -31 -145 -64 -4 -16 -13 -71 -18 -121 -14 -116 7 -222 49 -262
24 -22 32 -24 111 -20 70 4 96 10 147 36 145 74 320 257 489 512 74 112 85
134 104 215 25 111 33 140 130 470 27 91 114 322 187 495 110 260 262 551 376
719 82 121 224 255 293 274 10 3 43 4 73 2 42 -3 60 -10 80 -30z m-2894 -585
c171 -22 346 -108 466 -229 122 -123 179 -258 179 -427 0 -197 -77 -379 -212
-499 -72 -64 -204 -127 -312 -150 -48 -10 -83 -21 -79 -25 4 -4 40 -17 78 -29
96 -31 166 -73 247 -149 156 -148 226 -355 189 -566 -12 -67 -58 -176 -103
-239 -41 -59 -142 -159 -202 -199 -126 -87 -334 -160 -531 -187 -218 -31 -557
-22 -755 20 -338 72 -582 245 -695 493 -40 88 -57 174 -56 286 0 101 12 162
48 250 106 260 345 433 598 434 249 1 434 -166 450 -407 2 -31 7 -57 11 -58 6
0 120 332 137 403 6 24 2 30 -55 64 -81 50 -195 163 -240 241 -68 116 -83 172
-83 318 0 157 19 223 96 336 114 167 286 276 502 319 58 11 237 11 322 0z
m1075 -2589 l0 -48 49 1 c27 1 53 4 57 8 4 5 8 27 9 50 1 30 6 43 16 43 11 0
15 -26 17 -127 2 -109 0 -128 -13 -128 -14 0 -20 39 -18 108 1 14 4 13 -64 18
l-53 3 0 -64 c0 -58 -2 -65 -20 -65 -19 0 -20 7 -20 124 0 90 3 126 13 129 21
8 27 -3 27 -52z m450 50 c0 -5 15 -42 34 -83 76 -164 77 -168 56 -168 -12 0
-22 12 -30 35 -11 35 -12 35 -71 35 -58 0 -59 -1 -73 -35 -9 -20 -22 -35 -31
-35 -9 0 -15 4 -13 9 2 5 28 63 58 130 49 107 70 141 70 112z m310 -121 c0
-109 -2 -130 -15 -130 -13 0 -15 21 -15 130 0 109 2 130 15 130 13 0 15 -21
15 -130z m312 103 c33 -30 19 -101 -24 -115 -9 -3 -1 -23 25 -61 30 -47 34
-57 20 -57 -10 0 -35 25 -58 58 l-40 57 -3 -57 c-3 -49 -6 -58 -22 -58 -17 0
-19 9 -19 121 -1 67 2 126 5 131 9 15 94 1 116 -19z m563 14 c11 -9 15 -19 10
-26 -5 -9 -10 -10 -18 -2 -27 27 -86 0 -74 -34 4 -8 23 -21 43 -30 46 -19 63
-41 64 -81 0 -42 -32 -74 -75 -74 -35 0 -75 30 -75 57 0 20 24 16 38 -7 7 -11
22 -20 35 -20 54 0 65 61 16 88 -60 33 -79 53 -79 82 0 50 71 79 115 47z m324
-29 c10 -24 35 -78 55 -120 20 -42 36 -82 36 -88 0 -23 -27 -8 -43 25 -16 34
-19 35 -72 35 -53 0 -56 -1 -72 -35 -10 -20 -24 -35 -34 -35 -14 0 -7 23 44
130 33 72 62 130 64 130 2 0 12 -19 22 -42z m299 -76 l3 -112 34 0 c24 0 35
-5 35 -15 0 -12 -13 -15 -55 -15 l-55 0 0 123 c0 68 3 127 7 131 20 20 28 -9
31 -112z m416 104 c37 -15 76 -71 76 -108 0 -72 -61 -138 -128 -138 -43 0
-104 32 -121 63 -20 38 -17 100 8 140 33 54 99 71 165 43z m446 -80 c3 57 9
89 18 92 9 3 12 -27 12 -130 l0 -133 -88 93 c-49 50 -92 92 -95 92 -4 0 -7
-40 -7 -90 0 -73 -3 -90 -15 -90 -13 0 -15 21 -15 133 l0 132 93 -94 92 -93 5
88z"/>
<path d="M6110 4466 c-94 -63 -303 -392 -425 -668 -21 -46 -45 -101 -55 -123
-92 -202 -282 -714 -260 -700 5 3 33 45 61 93 57 94 155 243 424 642 259 384
359 560 387 679 17 74 2 101 -54 101 -29 0 -55 -8 -78 -24z"/>
<path d="M6814 4470 c-50 -32 -172 -191 -254 -330 -39 -66 -168 -321 -205
-405 -111 -250 -290 -725 -282 -748 1 -5 31 38 67 95 55 89 269 411 508 765
166 246 273 447 294 548 10 49 9 58 -7 75 -24 26 -80 26 -121 0z"/>
<path d="M4670 2898 c-118 -33 -278 -237 -370 -473 -17 -44 -34 -86 -37 -92
-16 -37 205 9 306 63 123 67 216 191 241 321 26 133 -34 211 -140 181z"/>
<path d="M6884 2900 c-130 -52 -415 -709 -441 -1017 -7 -84 3 -103 51 -103
142 1 322 230 444 566 76 207 94 415 44 510 -25 49 -54 62 -98 44z"/>
<path d="M3045 3896 c-149 -35 -264 -93 -365 -184 -244 -219 -254 -572 -24
-797 57 -56 174 -135 199 -135 6 0 19 26 29 58 68 219 162 455 222 553 43 71
115 139 148 139 34 0 41 -16 14 -31 -31 -16 -44 -34 -74 -98 -32 -71 -72 -191
-140 -421 -213 -718 -309 -967 -470 -1215 -72 -112 -193 -233 -265 -268 -59
-28 -149 -46 -149 -29 0 6 17 13 38 17 137 23 259 176 372 467 50 127 63 190
64 313 1 209 -83 333 -276 407 -83 31 -224 27 -327 -11 -218 -80 -379 -265
-427 -491 -22 -102 -15 -262 15 -350 99 -290 382 -487 783 -546 170 -25 493
-15 638 19 487 116 759 386 737 732 -19 311 -235 541 -527 563 -66 6 -85 10
-85 22 0 12 19 16 90 21 227 15 405 118 520 303 55 89 85 192 92 321 4 75 1
116 -11 165 -54 214 -229 390 -460 462 -82 25 -279 33 -361 14z"/>
<path d="M4856 1285 c-10 -19 -15 -39 -12 -44 6 -9 61 -9 71 0 7 8 -25 79 -36
79 -4 0 -14 -16 -23 -35z"/>
<path d="M5430 1325 c0 -40 2 -45 23 -45 29 0 47 18 47 47 0 23 -26 43 -54 43
-12 0 -16 -11 -16 -45z"/>
<path d="M6362 1308 c-11 -15 -22 -49 -20 -63 2 -14 68 -13 68 1 0 20 -22 74
-30 74 -4 0 -12 -6 -18 -12z"/>
<path d="M6989 1341 c-23 -23 -29 -38 -29 -72 0 -107 139 -139 185 -42 47 99
-78 191 -156 114z"/>
</g>
</svg>
